<?xml version="1.0" encoding="UTF-8"?>
<svg height="128px" viewBox="0 0 128 128" width="128px" xmlns="http://www.w3.org/2000/svg" xmlns:xlink="http://www.w3.org/1999/xlink">
    <linearGradient id="a" gradientTransform="matrix(0.25 0 0 0.184211 -14.148966 198.783089)" gradientUnits="userSpaceOnUse" x1="88.595886" x2="536.595886" y1="-449.394012" y2="-449.394012">
        <stop offset="0" stop-color="#ceb482"/>
        <stop offset="0.0357143" stop-color="#b7a073"/>
        <stop offset="0.0713653" stop-color="#b7a073"/>
        <stop offset="0.928571" stop-color="#b7a073"/>
        <stop offset="0.964286" stop-color="#897856"/>
        <stop offset="1" stop-color="#ceb482"/>
    </linearGradient>
    <path d="m 16 60 h 96 c 4.417969 0 8 2.640625 8 5.894531 v 44.210938 c 0 3.253906 -3.582031 5.894531 -8 5.894531 h -96 c -4.417969 0 -8 -2.640625 -8 -5.894531 v -44.210938 c 0 -3.253906 3.582031 -5.894531 8 -5.894531 z m 0 0" fill="url(#a)"/>
    <path d="m 16 12 h 96 c 4.417969 0 8 4.777344 8 10.667969 v 74.675781 c 0 5.890625 -3.582031 10.664062 -8 10.664062 h -96 c -4.417969 0 -8 -4.773437 -8 -10.664062 v -74.675781 c 0 -5.890625 3.582031 -10.667969 8 -10.667969 z m 0 0" fill="#e5c890"/>
    <path d="m 17.792965 227.321382 c 25.269532 -7.548161 10.128907 15.616481 38.222657 1.157646 c 7.972656 -4.083047 20.019531 -8.768383 28.695312 -3.293033 c 12.796875 8.076142 24.597656 5.166385 24.597656 5.166385" fill="none" stroke="#ffffff" stroke-linecap="round" stroke-width="5.20402" transform="matrix(1 0 0 0.998795 0.000003 -171.652828)"/>
    <path d="m 109.324215 261.546232 c -25.164062 7.536428 -9.789062 -16.871901 -37.863281 -2.018058 c -7.964844 4.192554 -19.984375 8.944376 -28.492187 2.921491 c -12.550782 -8.87789 -24.292969 -6.015064 -24.292969 -6.015064" fill="none" stroke="#ffffff" stroke-linecap="round" stroke-width="5.35264" transform="matrix(1 0 0 0.998795 0.000003 -171.652828)"/>
    <path d="m 8 24 s -0.832031 -12 8.746094 -12 h 96.3125 c 7.671875 0 6.941406 12 6.941406 12 v 16.027344 h -112 z m 0 0" fill="#179299"/>
</svg>
