<?xml version="1.0" encoding="UTF-8" standalone="no"?>
<svg
   width="48"
   height="48"
   version="1.1"
   id="svg8"
   sodipodi:docname="incognito-symbolic.svg"
   inkscape:version="1.2.2 (b0a8486541, 2022-12-01)"
   xmlns:inkscape="http://www.inkscape.org/namespaces/inkscape"
   xmlns:sodipodi="http://sodipodi.sourceforge.net/DTD/sodipodi-0.dtd"
   xmlns="http://www.w3.org/2000/svg"
   xmlns:svg="http://www.w3.org/2000/svg">
  <defs
     id="defs12" />
  <sodipodi:namedview
     id="namedview10"
     pagecolor="#ffffff"
     bordercolor="#000000"
     borderopacity="0.25"
     inkscape:showpageshadow="2"
     inkscape:pageopacity="0.0"
     inkscape:pagecheckerboard="0"
     inkscape:deskcolor="#d1d1d1"
     showgrid="false"
     inkscape:zoom="10.541667"
     inkscape:cx="24"
     inkscape:cy="24"
     inkscape:window-width="1280"
     inkscape:window-height="731"
     inkscape:window-x="0"
     inkscape:window-y="0"
     inkscape:window-maximized="1"
     inkscape:current-layer="svg8" />
  <circle
     style="fill:#3584e4;stroke-width:2;stroke-linejoin:round;opacity:0.3"
     id="path465"
     cx="24"
     cy="24"
     r="24" />
  <g
     fill="#222222"
     id="g6"
     transform="matrix(2,0,0,2,8,8)"
     style="fill:#f2f2f2;fill-opacity:1.0">
    <path
       d="M 6.227,1.172 C 4.801,1.192 3.98,2.484 3.657,3.782 V 3.82 L 3.015,6 h -1 c -0.555,0 -1,0.445 -1,1 0,0.555 0.445,1 1,1 h 12 c 0.554,0 1,-0.445 1,-1 0,-0.555 -0.446,-1 -1,-1 h -1 L 12.374,3.793 C 12.179,2.945 11.327,2.055 10.234,2.055 9.636,2.055 9.065,2.301 8.659,2.735 A 2.614,2.614 0 0 0 6.269,1.172 H 6.226 Z M 4.516,8.984 a 2.5,2.5 0 1 0 0,5 2.5,2.5 0 0 0 0,-5 z m 0,1 a 1.498,1.498 0 1 1 0,2.996 c -0.829,0 -1.496,-0.668 -1.496,-1.496 0,-0.828 0.667,-1.5 1.496,-1.5 z m 7,-1 a 2.5,2.5 0 1 0 0,5 2.5,2.5 0 0 0 0,-5 z m 0,1 a 1.498,1.498 0 1 1 0,2.996 c -0.829,0 -1.496,-0.668 -1.496,-1.496 0,-0.828 0.668,-1.5 1.496,-1.5 z m 0,0"
       id="path2"
       style="fill:#f2f2f2;fill-opacity:1.0" />
    <path
       d="m 6.45,12.543 a 0.498,0.498 0 0 1 -0.5,-0.5 c 0,-0.734 0.394,-1.414 1.034,-1.781 a 2.088,2.088 0 0 1 2.063,0 2.058,2.058 0 0 1 1.039,1.781 c 0,0.277 -0.223,0.5 -0.5,0.5 a 0.498,0.498 0 0 1 -0.5,-0.5 c 0,-0.375 -0.203,-0.723 -0.535,-0.91 a 1.07,1.07 0 0 0 -1.07,0 1.042,1.042 0 0 0 -0.532,0.91 c 0,0.277 -0.222,0.5 -0.5,0.5 z m 0,0"
       id="path4"
       style="fill:#f2f2f2;fill-opacity:1.0" />
  </g>
</svg>
