<svg xmlns="http://www.w3.org/2000/svg" width="48" height="48"><circle cx="24" cy="24" r="24" style="fill:#3584e4;opacity:.3"/><g fill="#222" style="fill:#f2f2f2;fill-opacity:1"><path d="M6.227 1.172c-1.426.02-2.247 1.312-2.57 2.61v.038L3.015 6h-1c-.555 0-1 .445-1 1 0 .555.445 1 1 1h12c.554 0 1-.445 1-1 0-.555-.446-1-1-1h-1l-.641-2.207c-.195-.848-1.047-1.738-2.14-1.738-.598 0-1.169.246-1.575.68a2.614 2.614 0 0 0-2.39-1.563h-.043ZM4.516 8.984a2.5 2.5 0 1 0 0 5 2.5 2.5 0 0 0 0-5zm0 1a1.498 1.498 0 1 1 0 2.996 1.493 1.493 0 0 1-1.496-1.496c0-.828.667-1.5 1.496-1.5zm7-1a2.5 2.5 0 1 0 0 5 2.5 2.5 0 0 0 0-5zm0 1a1.498 1.498 0 1 1 0 2.996 1.493 1.493 0 0 1-1.496-1.496c0-.828.668-1.5 1.496-1.5zm0 0" style="fill:#f2f2f2;fill-opacity:1" transform="matrix(2 0 0 2 8 8)"/><path d="M6.45 12.543a.498.498 0 0 1-.5-.5c0-.734.394-1.414 1.034-1.781a2.088 2.088 0 0 1 2.063 0 2.058 2.058 0 0 1 1.039 1.781c0 .277-.223.5-.5.5a.498.498 0 0 1-.5-.5c0-.375-.203-.723-.535-.91a1.07 1.07 0 0 0-1.07 0 1.042 1.042 0 0 0-.532.91c0 .277-.222.5-.5.5zm0 0" style="fill:#f2f2f2;fill-opacity:1" transform="matrix(2 0 0 2 8 8)"/></g></svg>