<svg xmlns="http://www.w3.org/2000/svg" xmlns:xlink="http://www.w3.org/1999/xlink" width="400" height="300" viewBox="0 0 105.833 79.375"><defs><linearGradient xlink:href="#a" id="b" x1="3519.448" x2="3951.448" y1="1490" y2="1490" gradientTransform="matrix(.24008 0 0 .22049 -553.925 -388.585)" gradientUnits="userSpaceOnUse"/><linearGradient id="a"><stop offset="0" style="stop-color:#3d3846;stop-opacity:1"/><stop offset=".031" style="stop-color:#77767b;stop-opacity:1"/><stop offset=".061" style="stop-color:#5e5c64;stop-opacity:1"/><stop offset=".939" style="stop-color:#3d3846;stop-opacity:1"/><stop offset=".969" style="stop-color:#77767b;stop-opacity:1"/><stop offset="1" style="stop-color:#241f31;stop-opacity:1"/></linearGradient></defs><g transform="translate(-228.6)"><g transform="matrix(.5 0 0 .5 130.478 13.585)"><rect width="88.9" height="60.325" x="257.628" y="20.72" rx="1.587" ry="1.587" style="fill:#000;fill-opacity:1;stroke-width:.644038;stroke-linecap:round;stroke-linejoin:round"/><path d="M291.042-61.383v1.058c0 1.058.529 1.587 1.587 1.587h100.542c1.058 0 1.587-.529 1.587-1.587v-1.058z" style="fill:url(#b);fill-opacity:1;stroke-width:.420662;stroke-linecap:round;stroke-linejoin:round" transform="translate(-40.822 142.428)"/><path d="M291.042-61.383v.529h103.716v-.53z" style="opacity:.4;fill:#241f31;fill-opacity:1;stroke-width:.460813;stroke-linecap:round;stroke-linejoin:round" transform="translate(-40.822 142.428)"/><path d="M334.301-61.383c.265.529.53 1.058 1.323 1.058h14.817c.794 0 1.058-.53 1.323-1.058z" style="fill:#77767b;fill-opacity:1;stroke:none;stroke-width:.638484;stroke-linecap:round;stroke-linejoin:round" transform="translate(-40.822 142.428)"/><path d="m291.042-61.383 7.408-3.175h88.9l7.408 3.175z" style="fill:#5e5c64;stroke:none;stroke-width:.320232px;stroke-linecap:butt;stroke-linejoin:miter;stroke-opacity:1" transform="translate(-40.822 142.428)"/><path d="M259.745 22.837h84.667v52.917h-84.667z" style="display:inline;fill:#c3daf7;fill-opacity:1;stroke:none;stroke-width:.000907317;stroke-linecap:square;stroke-linejoin:round;stroke-miterlimit:4;stroke-dasharray:none;stroke-dashoffset:0;stroke-opacity:1"/></g><g fill="#474747" style="fill:#3584e4"><path d="M4.113 7.815v-.206l-.198.019.05-.393h-.117l-.115.15-.116.056-.165-.093-.017-.206.033-.225.248-.186h.199l.033-.113.247.056.182.225.033-.374.314-.262.116-.28.231-.094.133-.187.297-.056.149-.225h-.446l.28-.13h.199l.28-.094.034-.112-.1-.094-.115-.037.033-.112-.083-.169-.198.075.033-.15-.231-.13-.182.317.017.113-.182.075-.116.243-.05-.225-.313-.13-.05-.169.413-.243.182-.168.017-.206-.1-.056L4.84 4l-.082.206s-.139.027-.174.036C4.13 4.66 3.214 5.562 3 7.266c.008.04.155.268.155.268l.347.206.347.093m3.966-4.3-.43-.168-.496.056-.611.168-.116.112.38.262v.15l-.149.15.199.392.132-.075.165-.262a5.51 5.51 0 0 0 .727-.28l.199-.505m2.529.342-.375.094-.219.156v.125l-.375.25.094.344.219-.157.125.157.156.093.094-.28L10 4.5l.063-.094.218-.187h.094l-.094.218v.188c.09-.024.16-.051.25-.063l-.25.188v.125l-.312.219-.281-.063v-.156l-.125.062.062.157h-.219l-.125.218-.156.157-.094.03v.188l.032.157H9.03v.53l.063-.03.094-.219L9.375 6l.031-.094.282-.062.156.187.187.094-.093.187.156-.03.062-.22-.187-.218h.062l.22.156.03.219.157.219.062-.313.094-.031c.096.1.169.231.25.344h.281l.188.125-.094.093-.156.157h-.25l-.344-.094h-.188l-.125.156-.343-.375-.25-.062-.375.062-.157.094V9l.032.031.25-.156.093.094h.281l.125.156-.093.312.187.188V10l.125.25-.093.25c-.01.161 0 .307 0 .469.08.219.143.435.218.656l.063.344v.187h.125l.219-.125h.25l.375-.437-.032-.157.25-.218-.187-.188.219-.187.218-.125.094-.125-.062-.25V9.75l.187-.375.188-.25.25-.563v-.156c-.117.015-.23.023-.344.031-.072.005-.145 0-.219 0a7.442 7.442 0 0 1-.312-.78l-.157-.188-.093-.313.062-.062.219.25.25.562.156.156-.062.22.156.155.25-.25.312-.218.157-.188v-.219c-.04-.073-.055-.145-.094-.218l-.156.187-.125-.156-.188-.125v-.281l.219.218.219-.03c.101.091.192.207.28.312L13 7.28c0-.174-.2-1.02-.625-1.75S11.22 4.125 11.22 4.125l-.063.094-.218.218-.25-.25h.25l.125-.125-.47-.093z" opacity=".3" overflow="visible" style="fill:#3584e4" transform="translate(273.05 29.766) scale(1.05833)"/><path d="M8 4.846v10.38l-2.344-2.288-1.34 2.734c-.327.74-2.033.145-1.548-.844l1.326-2.839H1.136Z" display="block" overflow="visible" style="fill:#3584e4" transform="translate(273.05 29.766) scale(1.05833)"/><path d="M7.156 1.063C3.33 1.522.578 5.02 1.063 8.843c.131 1.035.293 1.383.293 1.383l1.675-1.632A4.992 4.992 0 0 1 7.406 3.03a4.992 4.992 0 0 1 5.563 4.375c.314 2.608-1.391 5.025-3.969 5.532l.031 2s.521-.106.624-.131c3.416-.834 5.706-4.128 5.283-7.65-.46-3.827-3.955-6.555-7.782-6.095Z" font-family="Sans" font-weight="400" overflow="visible" style="text-indent:0;text-decoration-line:none;text-transform:none;fill:#3584e4" transform="translate(273.05 29.766) scale(1.05833)"/></g><circle cx="281.517" cy="24.474" r=".265" style="fill:#77767b;fill-opacity:1;stroke:none;stroke-width:.47614;stroke-linecap:round;stroke-linejoin:round"/></g></svg>