<svg xmlns="http://www.w3.org/2000/svg" width="400" height="300" viewBox="0 0 105.833 79.375"><g style="display:inline"><path d="M0 0h105.833v79.375H0z" style="fill:#fff"/><path fill="#2e3434" fill-opacity=".349" d="M44.45 24.87c-3.48 0-6.35 2.87-6.35 6.35v2.117h2.117v-2.116a4.22 4.22 0 0 1 4.233-4.234h2.117v-2.116zm4.233 0v2.117h8.467v-2.116zm10.584 0v2.117h2.116a4.22 4.22 0 0 1 4.234 4.234v2.116h2.116v-2.116c0-3.481-2.869-6.35-6.35-6.35zm-10.584 8.467a2.12 2.12 0 0 0-2.116 2.117 2.12 2.12 0 0 0 2.116 2.117 2.12 2.12 0 0 0 2.117-2.117 2.12 2.12 0 0 0-2.117-2.117zM38.1 35.454v8.467h2.117v-8.467zm27.517 0v8.467h2.116v-8.467zm-9.525 4.233-4.234 4.234-3.175-2.117-4.233 4.234v1.058c0 1.058 1.058 1.058 1.058 1.058h14.817s1-.074 1.058-1.058v-2.117ZM38.1 46.038v2.117c0 3.481 2.87 6.35 6.35 6.35h2.117v-2.117H44.45a4.22 4.22 0 0 1-4.233-4.233v-2.117Zm27.517 0v2.117a4.22 4.22 0 0 1-4.234 4.233h-2.116v2.117h2.116c3.481 0 6.35-2.869 6.35-6.35v-2.117Zm-16.934 6.35v2.117h8.467v-2.117z" style="opacity:.3;fill:#3584e4;fill-opacity:1"/></g></svg>