<?xml version="1.0" encoding="UTF-8" standalone="no"?>
<svg
   id="emoji"
   viewBox="0 0 72 72"
   version="1.1"
   sodipodi:docname="emoji.svg"
   inkscape:version="1.2.1 (9c6d41e410, 2022-07-14)"
   xmlns:inkscape="http://www.inkscape.org/namespaces/inkscape"
   xmlns:sodipodi="http://sodipodi.sourceforge.net/DTD/sodipodi-0.dtd"
   xmlns="http://www.w3.org/2000/svg"
   xmlns:svg="http://www.w3.org/2000/svg">
  <defs
     id="defs72" />
  <sodipodi:namedview
     id="namedview70"
     pagecolor="#505050"
     bordercolor="#eeeeee"
     borderopacity="1"
     inkscape:showpageshadow="0"
     inkscape:pageopacity="0"
     inkscape:pagecheckerboard="0"
     inkscape:deskcolor="#505050"
     showgrid="false"
     inkscape:zoom="10.819444"
     inkscape:cx="39.373557"
     inkscape:cy="36.138641"
     inkscape:window-width="1900"
     inkscape:window-height="1002"
     inkscape:window-x="0"
     inkscape:window-y="0"
     inkscape:window-maximized="1"
     inkscape:current-layer="line" />
  <g
     id="color">
    <circle
       cx="36.0001"
       cy="36"
       r="22.9999"
       fill="#FCEA2B"
       id="circle54"
       style="fill:#f2f2f2;stroke:#000000;stroke-opacity:0;fill-opacity:0" />
  </g>
  <g
     id="hair" />
  <g
     id="skin" />
  <g
     id="skin-shadow" />
  <g
     id="line">
    <circle
       cx="36"
       cy="36"
       fill="none"
       stroke="#000000"
       stroke-linecap="round"
       stroke-linejoin="round"
       stroke-width="2"
       id="circle60"
       style="fill:#1a1a1a;fill-opacity:0;stroke:#ffffff;stroke-opacity:1;stroke-width:4;stroke-dasharray:none"
       r="23" />
    <path
       fill="none"
       stroke="#000000"
       stroke-linecap="round"
       stroke-linejoin="round"
       stroke-width="2"
       d="M45.8149,44.9293 c-2.8995,1.6362-6.2482,2.5699-9.8149,2.5699s-6.9153-0.9336-9.8149-2.5699"
       id="path62"
       style="stroke:#ffffff;stroke-opacity:1;stroke-width:4;stroke-dasharray:none" />
    <path
       d="m 28.910742,31.407072 c 0,1.905938 -1.547021,3.451119 -3.451119,3.451119 -1.904212,0 -3.451119,-1.545296 -3.451119,-3.451119 0,-1.904097 1.546907,-3.451119 3.451119,-3.451119 1.904098,0 3.451119,1.547022 3.451119,3.451119"
       id="path64"
       style="fill:#ffffff;stroke-width:1.15037" />
    <path
       d="m 49.617458,31.407072 c 0,1.905938 -1.546907,3.451119 -3.451119,3.451119 -1.904213,0 -3.45112,-1.545296 -3.45112,-3.451119 0,-1.904097 1.546907,-3.451119 3.45112,-3.451119 1.904212,0 3.451119,1.547022 3.451119,3.451119"
       id="path66"
       style="fill:#ffffff;stroke-width:1.15037;stroke-dasharray:none" />
  </g>
</svg>
