<svg xmlns="http://www.w3.org/2000/svg" width="16" height="16"><path d="M7.5 0c-.277 0-.5.223-.5.5V1H5.5c-.277 0-.5.223-.5.5v3c0 .277.223.5.5.5h5c.277 0 .5-.223.5-.5v-3c0-.277-.223-.5-.5-.5H9V.5c0-.277-.223-.5-.5-.5h-1zM4 1a3.01 3.01 0 0 0-2.578 1.482L3 4.061V4c0-.57.43-1 1-1V1zm8 0v2c.57 0 1 .43 1 1v9c0 .3-.122.56-.318.74l1.404 1.405A2.99 2.99 0 0 0 15 13V4c0-1.645-1.355-3-3-3zM1.043 3.518A2.954 2.954 0 0 0 1 4v9c0 1.645 1.355 3 3 3h8a2.94 2.94 0 0 0 1.248-.28L11.528 14H4c-.57 0-1-.43-1-1V5.475L1.043 3.518zm3.912 2.498 5.514 5.511L12 10l-.023-3.984H4.955zm-.943.47v5.498h5.5l-5.5-5.498z" style="fill:#222;fill-opacity:1"/><path d="M-.75 1.414H.749v19.8H-.75z" style="fill:#222;stroke-width:2.9117;stroke-linejoin:round;fill-opacity:1" transform="rotate(-44.996) skewX(.008)"/></svg>