<?xml version="1.0" encoding="UTF-8" standalone="no"?>
<svg
   width="16"
   height="16"
   version="1.1"
   id="svg4"
   sodipodi:docname="emoji-symbolic.svg"
   inkscape:version="1.2.2 (b0a8486541, 2022-12-01)"
   xmlns:inkscape="http://www.inkscape.org/namespaces/inkscape"
   xmlns:sodipodi="http://sodipodi.sourceforge.net/DTD/sodipodi-0.dtd"
   xmlns="http://www.w3.org/2000/svg"
   xmlns:svg="http://www.w3.org/2000/svg">
  <defs
     id="defs8" />
  <sodipodi:namedview
     id="namedview6"
     pagecolor="#ffffff"
     bordercolor="#000000"
     borderopacity="0.25"
     inkscape:showpageshadow="2"
     inkscape:pageopacity="0.0"
     inkscape:pagecheckerboard="0"
     inkscape:deskcolor="#d1d1d1"
     showgrid="false"
     inkscape:zoom="64.1875"
     inkscape:cx="4.993184"
     inkscape:cy="8"
     inkscape:window-width="1463"
     inkscape:window-height="1238"
     inkscape:window-x="100"
     inkscape:window-y="132"
     inkscape:window-maximized="0"
     inkscape:current-layer="svg4" />
  <path
     d="M8 1a7 7 0 100 14A7 7 0 008 1zM6 5c.558 0 1.031.473 1.031 1.031V7c0 .558-.473 1-1.031 1-.558 0-1-.442-1-1v-.969C5 5.473 5.442 5 6 5zm4 0c.558 0 1 .473 1 1.031V7c0 .558-.442 1-1 1s-1-.442-1-1v-.969C9 5.473 9.442 5 10 5zM3 9.031c2 1.304 7.987 1.304 10.031 0l-.03.531c-.037.43-1 3.376-5 3.407-4 .031-5-2.78-5-3.313z"
     fill="#474747"
     id="path2"
     style="fill:#fefefe;fill-opacity:1" />
</svg>
