<?xml version="1.0" encoding="UTF-8" standalone="no"?>
<svg
   xmlns:dc="http://purl.org/dc/elements/1.1/"
   xmlns:cc="http://creativecommons.org/ns#"
   xmlns:rdf="http://www.w3.org/1999/02/22-rdf-syntax-ns#"
   xmlns:svg="http://www.w3.org/2000/svg"
   xmlns="http://www.w3.org/2000/svg"
   version="1.1"
   id="svg32935"
   viewBox="0 0 495.59634 638.58686"
   height="180.2234mm"
   width="180.8683mm">
  <defs
     id="defs32937" />
  <metadata
     id="metadata32940">
    <rdf:RDF>
      <cc:Work
         rdf:about="">
        <dc:format>image/svg+xml</dc:format>
        <dc:type
           rdf:resource="http://purl.org/dc/dcmitype/StillImage" />
        <dc:title></dc:title>
      </cc:Work>
    </rdf:RDF>
  </metadata>
  <g
     transform="translate(-607.75788,-456.72784)"
     id="layer1">
    <path
       id="path33558"
       d="m 670.37691,1082.9636 c -9.81156,-2.1009 -22.20781,-8.6038 -27.52722,-14.4403 -11.84745,-12.9991 -11.60818,-7.7632 -11.54478,-252.62172 0.0578,-223.17482 0.26919,-232.90591 5.26741,-242.61934 7.88514,-15.32345 22.91963,-22.99581 47.82509,-24.40603 l 20.09829,-1.13802 1.31923,18.13666 c 1.58334,21.76735 8.62216,33.5296 24.28366,40.5791 10.05905,4.52772 16.63727,4.76211 133.64223,4.76211 l 123.06243,0 9.24939,-5.49953 c 15.47246,-9.19966 21.70956,-19.68584 21.75766,-36.57991 0.059,-20.76037 1.1926,-21.73131 23.6611,-20.26643 23.1007,1.50612 35.8147,7.66643 44.9873,21.7977 l 6.6955,10.315 0,233.40007 c 0,128.37003 -0.9248,236.30924 -2.0552,239.86494 -2.7277,8.5804 -14.3702,20.535 -24.9991,25.6691 -7.8475,3.7907 -24.7845,4.1798 -197.73254,4.5427 -104.03246,0.2184 -193.12813,-0.455 -197.99045,-1.4961 z m 106.1568,-138.04563 0,-31.51474 -34.95157,0.67691 -34.95158,0.67693 -0.77996,27.66664 c -0.42901,15.21664 -0.1593,29.09367 0.59927,30.83783 1.03614,2.38238 9.92415,3.17119 35.73154,3.17119 l 34.3523,0 0,-31.51476 z m -47.6255,8.46384 c -5.04429,-11.5981 0.12092,-20.50994 11.8515,-20.44781 11.25479,0.0598 14.30948,3.15182 13.348,13.51176 -0.85122,9.17139 -1.1832,9.44828 -12.17833,10.15718 -8.45077,0.54486 -11.73678,-0.26803 -13.02117,-3.22113 z m 289.23319,0.14777 c 0.7078,-0.62447 0.7766,-4.99202 0.153,-9.70566 l -1.134,-8.57023 -94.9562,0.63569 -94.95636,0.63557 -0.90216,5.61789 c -2.07538,12.92479 -5.17307,12.52201 96.30483,12.52201 51.81223,0 94.78319,-0.51094 95.49089,-1.13539 z M 776.53371,838.82826 c 0,-26.20429 -0.69237,-31.41816 -4.33613,-32.65182 -5.63948,-1.90935 -56.96202,-1.90935 -62.60151,0 -3.6269,1.22795 -4.3362,6.30543 -4.3362,31.03938 0,16.26421 0.82243,30.29689 1.82758,31.18372 1.00508,0.88685 17.04172,1.61244 35.63693,1.61244 l 33.80933,0 0,-31.18372 z m -47.51584,7.8034 c -2.56009,-2.25876 -2.20408,-13.46805 0.54939,-17.29949 1.43681,-1.99929 6.28334,-2.90241 12.97922,-2.41866 10.45247,0.75515 10.70465,0.99685 11.52911,11.05132 l 0.84299,10.27927 -12.03664,0 c -6.62008,0 -12.85899,-0.7256 -13.86407,-1.61244 z m 289.30393,-7.10388 c 0.6466,-4.88633 -0.1329,-9.15184 -1.7742,-9.7075 -1.6101,-0.54514 -44.86122,-0.70426 -96.11363,-0.35363 l -93.18613,0.63755 -0.90216,5.61788 c -2.07553,12.92582 -5.18622,12.52202 96.46179,12.52202 l 94.36113,0 1.1532,-8.71632 z m -242.39151,-108.42717 0.76726,-30.39437 -35.71884,0 -35.71884,0 0,29.83005 c 0,16.40655 0.51357,30.28358 1.14126,30.83784 0.62768,0.55428 16.35591,0.80821 34.95157,0.56432 l 33.8104,-0.44346 0.76719,-30.39438 z m -47.52144,5.00257 c -3.3674,-11.83778 -0.83452,-14.83839 12.5255,-14.83839 l 12.29834,0 0,9.67462 c 0,9.64061 -0.0408,9.67722 -11.55987,10.41443 -10.33359,0.66135 -11.74063,0.10425 -13.26397,-5.25066 z m 289.91625,3.03713 c 0.5575,-1.47567 0.5235,-6.38742 -0.076,-10.91497 l -1.0892,-8.23194 -94.91935,0.6357 c -89.46711,0.59918 -94.97488,0.88982 -95.88436,5.05963 -0.53073,2.43319 -0.21553,7.05886 0.70076,10.27928 l 1.66564,5.85534 94.29436,0 c 66.62063,0 94.59175,-0.78742 95.30785,-2.68304 z M 739.14326,588.33519 c -8.9496,-5.53076 -12.74865,-16.56855 -11.39316,-33.10208 1.06652,-13.00897 2.31811,-15.74304 9.96776,-21.77349 8.38087,-6.60694 9.89695,-6.89643 36.11785,-6.89643 l 27.36972,0 0,-14.60828 c 0,-16.92121 6.28811,-29.86246 19.14967,-39.41094 10.51768,-7.80843 21.07813,-9.6 50.1809,-8.51306 20.25971,0.75665 24.14552,1.67059 33.29795,7.8318 13.46847,9.06661 20.59344,23.12816 20.66992,40.79322 l 0.0604,13.90726 25.35706,0.01 c 20.30597,0.008 27.10402,0.94884 34.12696,4.72699 16.94451,9.11567 18.98661,40.07813 3.54205,53.70488 l -7.77827,6.86282 -117.4769,0 c -98.56316,0 -118.39704,-0.56859 -123.19173,-3.53164 z M 871.9416,517.80198 c 0.89973,-8.15775 -4.35382,-11.84717 -13.30176,-9.34147 -12.03981,3.37154 -7.52896,18.93175 5.11466,17.64296 6.00585,-0.61218 7.50689,-2.13416 8.1871,-8.30149 z"
       style="fill:#ffffff" />
  </g>
</svg>
