<?xml version="1.0" encoding="UTF-8" standalone="no"?>
<svg
   width="16"
   height="16"
   version="1.1"
   id="svg4"
   sodipodi:docname="legacy-emoji-symbolic.svg"
   inkscape:version="1.2.2 (b0a8486541, 2022-12-01)"
   xmlns:inkscape="http://www.inkscape.org/namespaces/inkscape"
   xmlns:sodipodi="http://sodipodi.sourceforge.net/DTD/sodipodi-0.dtd"
   xmlns="http://www.w3.org/2000/svg"
   xmlns:svg="http://www.w3.org/2000/svg">
  <defs
     id="defs8" />
  <sodipodi:namedview
     id="namedview6"
     pagecolor="#ffffff"
     bordercolor="#000000"
     borderopacity="0.25"
     inkscape:showpageshadow="2"
     inkscape:pageopacity="0.0"
     inkscape:pagecheckerboard="0"
     inkscape:deskcolor="#d1d1d1"
     showgrid="false"
     inkscape:zoom="64.1875"
     inkscape:cx="9.4722493"
     inkscape:cy="8.5764362"
     inkscape:window-width="2051"
     inkscape:window-height="1324"
     inkscape:window-x="396"
     inkscape:window-y="57"
     inkscape:window-maximized="0"
     inkscape:current-layer="svg4" />
  <path
     fill="#222222"
     d="M 8,1 C 5.8502764,1 4.3086094,1.7489184 3.1118215,2.8956245 1.8579408,4.0970343 1,5.7477236 1,8 1,10.5012 2.0812475,12.339153 3.613109,13.529869 4.777255,14.43476 6.0992002,15 8,15 10.152332,15 11.679396,14.20108 12.876366,13.051701 14.127467,11.850344 15,10.249668 15,8 15,5.6714536 14.046718,4.0093521 12.710328,2.8078988 11.520339,1.738065 10.073454,1 8,1 Z m 0,0.98 c 1.5338812,0 2.928564,0.5652301 3.988395,1.5000371 C 13.236328,4.5807563 14.02,6.1938812 14.02,8 14.02,11.34 11.34,14.02 8,14.02 4.66,14.02 1.98,11.34 1.98,8 1.98,6.308788 2.6671285,4.7867942 3.7791412,3.696263 4.863259,2.6330877 6.351212,1.98 8,1.98 Z M 6,5 C 5.45,5 5,5.45 5,6 5,6.55 5.45,7 6,7 6.55,7 7,6.55 7,6 7,5.45 6.55,5 6,5 Z m 4,0 C 9.45,5 9,5.45 9,6 9,6.55 9.45,7 10,7 10.55,7 11,6.55 11,6 11,5.45 10.55,5 10,5 Z M 4.719,9.066 C 4.4769707,9.2022646 4.3940002,9.5106984 4.535,9.75 c 1.5392006,2.668742 5.3907994,2.668742 6.93,0 C 11.531,9.637 11.551,9.5 11.515,9.371 11.479,9.242 11.395,9.133 11.281,9.066 11.167,8.999 11.031,8.98 10.902,9.016 10.773,9.052 10.664,9.136 10.598,9.25 10.062,10.18 9.074,10.75 8,10.75 6.926,10.75 5.937,10.18 5.402,9.25 5.2646102,9.0094239 4.9575459,8.9268218 4.718,9.066 Z"
     id="path2"
     sodipodi:nodetypes="sssssssssssssssssssssssssscccssscsccc" />
</svg>
