<svg version="1.1" xmlns="http://www.w3.org/2000/svg" xmlns:xlink="http://www.w3.org/1999/xlink" x="0px" y="0px" viewBox="0 0 1000 1000" enable-background="new 0 0 1000 1000" xml:space="preserve">
  <g>
    <g transform="translate(0.000000,511.000000) scale(0.100000,-0.100000)">
      <path fill="#fff" d="M7603.7,4981c-210.5-56.1-236.6-76.2-816.1-577.5l-413-358.9l-62.2,54.1c-256.7,214.6-707.8,288.7-1030.6,168.4c-238.6-88.2-431.1-242.6-431.1-342.9c0-82.2,16-106.3,250.6-379c116.3-132.3,210.5-250.6,210.5-258.7c0-10-647.7-577.5-1437.7-1261.2C2877.6,1167.2,2414.5,754.2,2370.3,686c-210.5-314.8-240.6-695.8-82.2-1026.6c82.2-172.5,300.8-395,465.2-471.2c306.8-144.4,613.6-140.4,910.3,12c140.4,74.2,364.9,258.7,1568,1299.3c772,667.7,1415.6,1215.1,1429.7,1217.1c12.1,2,118.3-108.3,234.6-246.6c116.3-138.3,236.6-264.7,266.7-280.7c88.2-48.1,158.4-20.1,290.7,118.3c318.8,334.9,393,824.1,186.5,1233.2l-62.1,122.3l437.1,379c507.3,441.1,569.5,505.3,651.7,679.7c48.1,106.3,62.2,164.4,70.2,314.8c16.1,304.8-72.2,531.4-280.7,723.8C8223.3,4977,7900.5,5059.2,7603.7,4981z M6069.8,2426.5c226.6-262.7,280.7-336.9,258.7-352.9c-14-10-637.6-547.4-1383.5-1193.1C4146.9,192.8,3543.3-316.6,3481.2-348.6c-204.5-108.3-453.2-68.2-621.6,98.3c-102.3,104.2-142.4,196.5-150.4,364.9c-8,126.3-2,158.4,46.1,254.6c56.1,116.3-60.2,14,2394.1,2129.5l493.3,423.1l70.2-82.2C5751,2793.4,5911.4,2606.9,6069.8,2426.5z" />
      <path fill="#fff" d="M2149.8-1820.4c-407-601.5-695.8-1128.9-820.1-1499.8c-58.1-172.4-68.2-234.6-68.2-385c0-318.8,94.2-555.4,306.8-768c421.1-421.1,1173-423.1,1592.1-2c324.8,324.8,395,763.9,206.5,1265.2c-66.2,172.4-280.7,587.5-439.1,850.2c-186.5,306.8-541.4,834.1-563.4,834.1C2356.3-1525.7,2258.1-1658,2149.8-1820.4z" />
    </g>
  </g>
</svg>